<svg width="251" height="54" viewBox="0 0 251 54" fill="none" xmlns="http://www.w3.org/2000/svg">
<path d="M3.21452 53.0963C2.43263 53.0963 1.75361 52.8321 1.17747 52.3037C0.642491 51.7753 0.375 51.0927 0.375 50.256V4.34806C0.375 3.51137 0.621915 2.8288 1.11575 2.30037C1.60958 1.77193 2.24744 1.50771 3.02934 1.50771H17.9677C20.5191 1.50771 22.8031 2.08019 24.8196 3.22513C26.8772 4.37008 28.5027 5.93337 29.6962 7.91501C30.8896 9.85261 31.4863 12.1205 31.4863 14.7186C31.4863 17.0526 30.8896 19.1223 29.6962 20.9278C28.5439 22.7333 27.0212 24.1424 25.1282 25.1553C27.8443 25.9039 30.046 27.3571 31.7332 29.5149C33.4205 31.6286 34.2641 34.3589 34.2641 37.7056C34.2641 40.7441 33.6056 43.4083 32.2888 45.6982C31.013 47.9881 29.2229 49.7936 26.9184 51.1147C24.655 52.4358 22.0418 53.0963 19.0788 53.0963H3.21452ZM5.68367 47.7459H19.0788C21.013 47.7459 22.7208 47.3496 24.2023 46.5569C25.7249 45.7202 26.9184 44.5753 27.7826 43.1221C28.6468 41.6249 29.0789 39.8194 29.0789 37.7056C29.0789 35.768 28.6468 34.0946 27.7826 32.6855C26.9184 31.2763 25.7249 30.1974 24.2023 29.4488C22.7208 28.7002 21.013 28.3259 19.0788 28.3259H5.68367V47.7459ZM5.68367 22.9094H17.9677C20.3957 22.9094 22.3916 22.2048 23.9554 20.7957C25.5192 19.3865 26.3011 17.3608 26.3011 14.7186C26.3011 12.1205 25.5192 10.1609 23.9554 8.83977C22.3916 7.51868 20.3957 6.85813 17.9677 6.85813H5.68367V22.9094Z" fill="white"/>
<path d="M49.5791 53.0963C48.8383 53.0963 48.2005 52.8321 47.6655 52.3037C47.1717 51.7312 46.9247 51.0487 46.9247 50.256V4.34806C46.9247 3.51137 47.1717 2.8288 47.6655 2.30037C48.2005 1.77193 48.8383 1.50771 49.5791 1.50771C50.649 1.50771 51.4309 1.99211 51.9248 2.96091L72.2953 46.3588H70.2582L90.1966 2.96091C90.7316 1.99211 91.5135 1.50771 92.5423 1.50771C93.283 1.50771 93.9003 1.77193 94.3942 2.30037C94.888 2.8288 95.1349 3.51137 95.1349 4.34806V50.256C95.1349 51.0487 94.888 51.7312 94.3942 52.3037C93.9003 52.8321 93.283 53.0963 92.5423 53.0963C91.7604 53.0963 91.102 52.8321 90.567 52.3037C90.0731 51.7312 89.8262 51.0487 89.8262 50.256V11.8783L90.9373 11.8122L73.3447 50.256C72.8508 51.1808 72.0895 51.6431 71.0607 51.6431C69.9496 51.6431 69.1265 51.0707 68.5915 49.9257L50.9988 12.2086L52.2334 11.8783V50.256C52.2334 51.0487 51.9659 51.7312 51.4309 52.3037C50.9371 52.8321 50.3198 53.0963 49.5791 53.0963Z" fill="white"/>
<path d="M132.261 53.7569C128.928 53.7569 125.8 53.0743 122.879 51.7092C119.998 50.3441 117.446 48.4505 115.224 46.0285C113.043 43.6065 111.335 40.8102 110.101 37.6396C108.907 34.4249 108.311 30.9681 108.311 27.269C108.311 23.614 108.907 20.2012 110.101 17.0305C111.335 13.8159 113.043 11.0196 115.224 8.64161C117.405 6.2196 119.936 4.32604 122.817 2.96091C125.739 1.55175 128.887 0.847168 132.261 0.847168C135.266 0.847168 137.961 1.30955 140.348 2.23431C142.735 3.11504 145.06 4.56824 147.323 6.59391C147.694 6.90217 147.92 7.25446 148.002 7.65079C148.126 8.00308 148.126 8.35537 148.002 8.70766C147.92 9.05995 147.776 9.36821 147.57 9.63243C147.488 10.1168 147.241 10.5132 146.829 10.8214C146.459 11.0856 146.006 11.2177 145.471 11.2177C144.936 11.2177 144.401 10.9976 143.866 10.5572C142.303 9.05995 140.615 7.95904 138.805 7.25446C136.994 6.50584 134.813 6.13153 132.261 6.13153C129.669 6.13153 127.22 6.70401 124.916 7.84895C122.652 8.94986 120.656 10.4691 118.928 12.4067C117.2 14.3443 115.842 16.5902 114.854 19.1443C113.907 21.6984 113.434 24.4066 113.434 27.269C113.434 30.2194 113.907 32.9717 114.854 35.5258C115.842 38.0799 117.2 40.3258 118.928 42.2634C120.656 44.201 122.652 45.7202 124.916 46.8212C127.22 47.9221 129.669 48.4725 132.261 48.4725C134.442 48.4725 136.521 48.0762 138.496 47.2835C140.471 46.4909 142.364 45.368 144.175 43.9148C144.751 43.4304 145.327 43.2322 145.903 43.3203C146.521 43.4083 147.035 43.6946 147.447 44.179C147.899 44.6193 148.126 45.2358 148.126 46.0285C148.126 46.4248 148.064 46.7771 147.94 47.0854C147.817 47.3936 147.632 47.7239 147.385 48.0762C145.245 50.0578 142.879 51.511 140.286 52.4358C137.735 53.3165 135.06 53.7569 132.261 53.7569Z" fill="white"/>
<path d="M163.958 53.0963C163.176 53.0963 162.538 52.8321 162.045 52.3037C161.551 51.7753 161.304 51.0927 161.304 50.256V4.34806C161.304 3.51137 161.551 2.8288 162.045 2.30037C162.538 1.77193 163.176 1.50771 163.958 1.50771H175.378C178.382 1.50771 181.057 2.19028 183.403 3.5554C185.79 4.92053 187.641 6.8141 188.958 9.2361C190.316 11.6141 190.995 14.3884 190.995 17.559C190.995 20.5534 190.316 23.2177 188.958 25.5516C187.641 27.8855 185.79 29.713 183.403 31.0341C181.057 32.3552 178.382 33.0158 175.378 33.0158H166.612V50.256C166.612 51.0927 166.366 51.7753 165.872 52.3037C165.378 52.8321 164.74 53.0963 163.958 53.0963ZM189.699 53.0963C189.164 53.0963 188.711 52.9863 188.341 52.7661C187.971 52.5019 187.662 52.1275 187.415 51.6431L175.748 31.7607L180.995 30.3075L191.798 48.7367C192.456 49.8377 192.559 50.8505 192.106 51.7753C191.695 52.656 190.892 53.0963 189.699 53.0963ZM166.612 27.5993H175.378C177.394 27.5993 179.185 27.1809 180.748 26.3442C182.353 25.4635 183.608 24.2745 184.514 22.7773C185.419 21.236 185.872 19.4966 185.872 17.559C185.872 15.4452 185.419 13.5957 184.514 12.0104C183.608 10.381 182.353 9.12601 180.748 8.24528C179.185 7.32052 177.394 6.85813 175.378 6.85813H166.612V27.5993Z" fill="white"/>
<path d="M205.444 53.0963C204.703 53.0963 204.066 52.8321 203.531 52.3037C203.037 51.7312 202.79 51.0487 202.79 50.256V4.34806C202.79 3.51137 203.037 2.8288 203.531 2.30037C204.066 1.77193 204.703 1.50771 205.444 1.50771C206.514 1.50771 207.296 1.99211 207.79 2.96091L228.16 46.3588H226.123L246.062 2.96091C246.597 1.99211 247.379 1.50771 248.407 1.50771C249.148 1.50771 249.765 1.77193 250.259 2.30037C250.753 2.8288 251 3.51137 251 4.34806V50.256C251 51.0487 250.753 51.7312 250.259 52.3037C249.765 52.8321 249.148 53.0963 248.407 53.0963C247.626 53.0963 246.967 52.8321 246.432 52.3037C245.938 51.7312 245.691 51.0487 245.691 50.256V11.8783L246.802 11.8122L229.21 50.256C228.716 51.1808 227.955 51.6431 226.926 51.6431C225.815 51.6431 224.992 51.0707 224.457 49.9257L206.864 12.2086L208.099 11.8783V50.256C208.099 51.0487 207.831 51.7312 207.296 52.3037C206.802 52.8321 206.185 53.0963 205.444 53.0963Z" fill="white"/>
</svg>
