<svg width="90" height="19" viewBox="0 0 90 19" fill="none" xmlns="http://www.w3.org/2000/svg">
<path d="M1.01968 18.7628C0.738898 18.7628 0.495062 18.6679 0.28817 18.4782C0.0960567 18.2884 0 18.0433 0 17.7428V1.25718C0 0.95672 0.0886678 0.71161 0.266003 0.521847C0.443339 0.332084 0.672397 0.237203 0.953178 0.237203H6.31758C7.23381 0.237203 8.05399 0.442779 8.77811 0.853931C9.517 1.26508 10.1007 1.82647 10.5293 2.53808C10.9579 3.23387 11.1721 4.04827 11.1721 4.98127C11.1721 5.81939 10.9579 6.56263 10.5293 7.21099C10.1155 7.85934 9.56873 8.36538 8.88894 8.72909C9.86429 8.99792 10.6549 9.51977 11.2608 10.2946C11.8667 11.0537 12.1696 12.0341 12.1696 13.236C12.1696 14.3271 11.9332 15.2838 11.4603 16.1061C11.0022 16.9284 10.3593 17.5768 9.53178 18.0512C8.719 18.5256 7.78059 18.7628 6.71658 18.7628H1.01968ZM1.90636 16.8414H6.71658C7.41115 16.8414 8.02443 16.6991 8.55644 16.4145C9.10322 16.114 9.53178 15.7029 9.84212 15.181C10.1525 14.6434 10.3076 13.995 10.3076 13.236C10.3076 12.5402 10.1525 11.9392 9.84212 11.4332C9.53178 10.9272 9.10322 10.5397 8.55644 10.2709C8.02443 10.0021 7.41115 9.86767 6.71658 9.86767H1.90636V16.8414ZM1.90636 7.9226H6.31758C7.18948 7.9226 7.90621 7.66958 8.46777 7.16355C9.02933 6.65751 9.31011 5.93009 9.31011 4.98127C9.31011 4.04827 9.02933 3.34457 8.46777 2.87016C7.90621 2.39575 7.18948 2.15855 6.31758 2.15855H1.90636V7.9226Z" fill="black"/>
<path d="M17.6693 18.7628C17.4033 18.7628 17.1742 18.6679 16.9821 18.4782C16.8048 18.2726 16.7161 18.0275 16.7161 17.7428V1.25718C16.7161 0.95672 16.8048 0.71161 16.9821 0.521847C17.1742 0.332084 17.4033 0.237203 17.6693 0.237203C18.0535 0.237203 18.3343 0.411152 18.5116 0.75905L25.8267 16.3433H25.0952L32.2551 0.75905C32.4473 0.411152 32.728 0.237203 33.0975 0.237203C33.3635 0.237203 33.5852 0.332084 33.7625 0.521847C33.9398 0.71161 34.0285 0.95672 34.0285 1.25718V17.7428C34.0285 18.0275 33.9398 18.2726 33.7625 18.4782C33.5852 18.6679 33.3635 18.7628 33.0975 18.7628C32.8167 18.7628 32.5803 18.6679 32.3881 18.4782C32.2108 18.2726 32.1221 18.0275 32.1221 17.7428V3.9613L32.5211 3.93758L26.2036 17.7428C26.0262 18.0749 25.7528 18.2409 25.3834 18.2409C24.9844 18.2409 24.6888 18.0354 24.4967 17.6242L18.1791 4.0799L18.6225 3.9613V17.7428C18.6225 18.0275 18.5264 18.2726 18.3343 18.4782C18.157 18.6679 17.9353 18.7628 17.6693 18.7628Z" fill="black"/>
<path d="M47.3607 19C46.1637 19 45.0406 18.7549 43.9913 18.2647C42.9569 17.7744 42.0406 17.0945 41.2426 16.2247C40.4594 15.355 39.8461 14.3508 39.4028 13.2122C38.9742 12.0578 38.7599 10.8165 38.7599 9.48814C38.7599 8.17561 38.9742 6.95006 39.4028 5.81149C39.8461 4.6571 40.4594 3.65293 41.2426 2.799C42.0259 1.92925 42.9347 1.24927 43.9692 0.75905C45.0184 0.253017 46.1489 0 47.3607 0C48.4395 0 49.4074 0.166042 50.2646 0.498127C51.1217 0.814398 51.9566 1.33625 52.7694 2.06367C52.9024 2.17436 52.9837 2.30087 53.0133 2.4432C53.0576 2.5697 53.0576 2.69621 53.0133 2.82272C52.9837 2.94923 52.932 3.05992 52.8581 3.15481C52.8285 3.32876 52.7399 3.47108 52.5921 3.58177C52.4591 3.67665 52.2965 3.72409 52.1044 3.72409C51.9123 3.72409 51.7202 3.64503 51.5281 3.48689C50.9665 2.94923 50.3606 2.55389 49.7104 2.30087C49.0602 2.03204 48.2769 1.89763 47.3607 1.89763C46.4297 1.89763 45.5504 2.1032 44.7228 2.51436C43.91 2.9097 43.1933 3.45526 42.5726 4.15106C41.952 4.84686 41.4643 5.65335 41.1096 6.57054C40.7697 7.48772 40.5998 8.46026 40.5998 9.48814C40.5998 10.5476 40.7697 11.536 41.1096 12.4532C41.4643 13.3704 41.952 14.1769 42.5726 14.8727C43.1933 15.5685 43.91 16.114 44.7228 16.5094C45.5504 16.9047 46.4297 17.1024 47.3607 17.1024C48.1439 17.1024 48.8902 16.9601 49.5996 16.6754C50.3089 16.3908 50.9887 15.9875 51.6389 15.4657C51.8458 15.2917 52.0527 15.2206 52.2596 15.2522C52.4813 15.2838 52.666 15.3866 52.8138 15.5605C52.9763 15.7187 53.0576 15.9401 53.0576 16.2247C53.0576 16.367 53.0354 16.4935 52.9911 16.6042C52.9468 16.7149 52.8803 16.8335 52.7916 16.9601C52.0231 17.6717 51.1734 18.1935 50.2424 18.5256C49.3262 18.8419 48.3656 19 47.3607 19Z" fill="black"/>
<path d="M58.7431 18.7628C58.4623 18.7628 58.2332 18.6679 58.0559 18.4782C57.8786 18.2884 57.7899 18.0433 57.7899 17.7428V1.25718C57.7899 0.95672 57.8786 0.71161 58.0559 0.521847C58.2332 0.332084 58.4623 0.237203 58.7431 0.237203H62.8439C63.9227 0.237203 64.8833 0.482313 65.7256 0.972533C66.5828 1.46275 67.2478 2.14274 67.7207 3.01248C68.2083 3.86642 68.4522 4.86267 68.4522 6.00125C68.4522 7.07657 68.2083 8.03329 67.7207 8.87141C67.2478 9.70953 66.5828 10.3658 65.7256 10.8402C64.8833 11.3146 63.9227 11.5518 62.8439 11.5518H59.6962V17.7428C59.6962 18.0433 59.6076 18.2884 59.4302 18.4782C59.2529 18.6679 59.0238 18.7628 58.7431 18.7628ZM67.9867 18.7628C67.7946 18.7628 67.632 18.7233 67.499 18.6442C67.366 18.5493 67.2552 18.4149 67.1665 18.2409L62.9769 11.1011L64.8611 10.5793L68.7403 17.1973C68.9768 17.5926 69.0137 17.9563 68.8512 18.2884C68.7034 18.6047 68.4152 18.7628 67.9867 18.7628ZM59.6962 9.60674H62.8439C63.5681 9.60674 64.2109 9.45651 64.7725 9.15605C65.3488 8.83978 65.7995 8.41282 66.1247 7.87516C66.4498 7.32168 66.6123 6.69704 66.6123 6.00125C66.6123 5.2422 66.4498 4.57803 66.1247 4.00874C65.7995 3.42364 65.3488 2.97295 64.7725 2.65668C64.2109 2.32459 63.5681 2.15855 62.8439 2.15855H59.6962V9.60674Z" fill="black"/>
<path d="M73.6408 18.7628C73.3748 18.7628 73.1457 18.6679 72.9536 18.4782C72.7763 18.2726 72.6876 18.0275 72.6876 17.7428V1.25718C72.6876 0.95672 72.7763 0.71161 72.9536 0.521847C73.1457 0.332084 73.3748 0.237203 73.6408 0.237203C74.025 0.237203 74.3058 0.411152 74.4831 0.75905L81.7982 16.3433H81.0667L88.2266 0.75905C88.4188 0.411152 88.6995 0.237203 89.069 0.237203C89.335 0.237203 89.5567 0.332084 89.734 0.521847C89.9113 0.71161 90 0.95672 90 1.25718V17.7428C90 18.0275 89.9113 18.2726 89.734 18.4782C89.5567 18.6679 89.335 18.7628 89.069 18.7628C88.7882 18.7628 88.5518 18.6679 88.3596 18.4782C88.1823 18.2726 88.0936 18.0275 88.0936 17.7428V3.9613L88.4926 3.93758L82.1751 17.7428C81.9977 18.0749 81.7243 18.2409 81.3549 18.2409C80.9559 18.2409 80.6603 18.0354 80.4682 17.6242L74.1506 4.0799L74.594 3.9613V17.7428C74.594 18.0275 74.4979 18.2726 74.3058 18.4782C74.1285 18.6679 73.9068 18.7628 73.6408 18.7628Z" fill="black"/>
</svg>
