<svg width="19" height="19" viewBox="0 0 19 19" fill="none" xmlns="http://www.w3.org/2000/svg">
<path d="M1.6311 19C0.730268 19 0 18.2697 0 17.3689C0 15.6742 0.52794 14.0216 1.51045 12.6408L8.43518 2.90859C8.68365 2.55938 8.68197 2.09066 8.43099 1.74324L7.95722 1.08743C7.78739 0.852341 7.83429 0.524968 8.0633 0.347018C8.30631 0.158191 8.65787 0.211117 8.83452 0.463121L8.93242 0.602793C9.20968 0.998335 9.79458 1.00135 10.0759 0.608694L10.1834 0.458666C10.3617 0.209825 10.712 0.161093 10.9515 0.351834C11.1735 0.528717 11.2187 0.84824 11.0544 1.07974L10.5811 1.74666C10.3351 2.09333 10.3351 2.55767 10.5812 2.90431L17.4924 12.639C18.4731 14.0204 19 15.6726 19 17.3667C19 18.2687 18.2687 19 17.3667 19H1.6311ZM5.15006 17.8973H13.8499H9.5H5.15006Z" fill="#8B103E"/>
<path d="M9.49973 18.2693C8.76757 18.2692 8.05232 18.0492 7.44671 17.6378C6.84109 17.2263 6.37306 16.6424 6.10328 15.9618C5.8335 15.2811 5.77443 14.5351 5.93371 13.8205C6.093 13.1059 6.4633 12.4556 6.9966 11.954C7.65039 11.3387 9.25614 10.2308 9.01255 7.79492C11.7619 10.4047 12.91 12.4215 10.4741 14.6154C10.9613 14.6154 11.692 14.6154 12.91 13.4121C13.0415 13.7887 13.1536 14.1935 13.1536 14.6154C13.1536 15.5845 12.7686 16.5139 12.0834 17.1991C11.3982 17.8843 10.4688 18.2693 9.49973 18.2693Z" fill="#F6F6F6"/>
</svg>
