<svg width="113" height="113" viewBox="0 0 113 113" fill="none" xmlns="http://www.w3.org/2000/svg">
<path d="M65.4665 110.603C71.2401 109.913 84.0473 109.316 90.3068 93.4803C96.5662 77.6446 80.5611 57.8533 70.1663 47.0823C64.2735 40.9763 61.5727 34.5162 62.5127 26.5071C59.4577 27.8419 48.9008 33.819 45.8631 42.3873C41.5556 54.5377 48.7776 63.6789 57.0075 73.4573C64.097 81.8808 67.3195 93.066 61.6801 100.661C54.843 109.869 41.0292 111.57 32.9732 98.4515C29.1921 92.2944 26.9578 76.3848 37.8069 64.8958C39.2391 67.7497 41.7346 73.0604 45.8631 76.9096C50.1459 80.9026 53.3822 85.1949 53.6507 90.5804C54.0088 97.761 44.1597 97.2547 41.0294 93.066C33.136 82.5039 42.8294 71.2249 51.3682 60.8912C54.2437 57.4113 58.1274 53.8717 59.4243 52.6059C59.4243 54.5392 60.2464 59.0182 64.7952 64.8958C70.0317 71.6622 73.4507 75.0699 74.7311 83.1236C76.5134 94.333 69.8973 106.645 65.4665 110.603Z" stroke="white" stroke-width="3"/>
<path d="M2 56.9981C2 26.6235 26.3119 2 56.3021 2C86.2923 2 110.604 26.6235 110.604 56.9981C110.604 78.5923 98.3164 97.2798 80.4363 106.279" stroke="white" stroke-width="3" stroke-linecap="round"/>
</svg>
