<svg width="41" height="42" viewBox="0 0 41 42" fill="none" xmlns="http://www.w3.org/2000/svg">
<path d="M23.791 39.9997C25.8643 39.7517 30.4634 39.5374 32.7112 33.8508C34.959 28.1641 29.2115 21.057 25.4787 17.1892C23.3626 14.9965 22.3927 12.6766 22.7303 9.80054C21.6332 10.2799 17.8422 12.4263 16.7514 15.5032C15.2045 19.8664 17.798 23.149 20.7534 26.6605C23.2992 29.6854 24.4564 33.702 22.4313 36.4293C19.9761 39.736 15.0155 40.3468 12.1226 35.6359C10.7648 33.4249 9.96244 27.7118 13.8584 23.586C14.3727 24.6108 15.2688 26.5179 16.7514 27.9002C18.2893 29.3341 19.4515 30.8755 19.5479 32.8094C19.6765 35.388 16.1397 35.2062 15.0156 33.702C12.181 29.9091 15.662 25.8588 18.7283 22.148C19.7609 20.8983 21.1555 19.6272 21.6212 19.1727C21.6212 19.8669 21.9165 21.4753 23.5499 23.586C25.4304 26.0158 26.6581 27.2395 27.1179 30.1316C27.758 34.157 25.3821 38.5782 23.791 39.9997Z" stroke="url(#paint0_linear_3_1346)" stroke-width="2"/>
<path d="M1 20.7499C1 9.84235 9.73045 1 20.5 1C31.2696 1 40 9.84235 40 20.7499C40 28.5045 35.5874 35.2152 29.1667 38.4469" stroke="url(#paint1_linear_3_1346)" stroke-width="2" stroke-linecap="round"/>
<defs>
<linearGradient id="paint0_linear_3_1346" x1="22.1109" y1="9.80054" x2="22.1109" y2="39.9997" gradientUnits="userSpaceOnUse">
<stop stop-color="#FE912A"/>
<stop offset="1" stop-color="#FF5C00"/>
</linearGradient>
<linearGradient id="paint1_linear_3_1346" x1="20.5" y1="1" x2="20.5" y2="40.4999" gradientUnits="userSpaceOnUse">
<stop stop-color="#FE912A"/>
<stop offset="1" stop-color="#FF5E02"/>
</linearGradient>
</defs>
</svg>
