<svg width="1280" height="584" viewBox="0 0 1280 584" fill="none" xmlns="http://www.w3.org/2000/svg">
<path d="M1031.84 354.016C1156.46 354.016 1262.5 274.412 1301.93 163.254M1031.84 328.557C1142.19 328.557 1236.54 260.065 1274.75 163.254M1031.84 303.099C1127.84 303.099 1210.43 245.658 1247.15 163.254M1031.84 277.641C1113.39 277.641 1184.1 231.171 1218.94 163.254M1031.84 252.182C1098.77 252.182 1157.39 216.571 1189.79 163.254M1031.84 226.724C1083.83 226.724 1130 201.805 1159.08 163.254M1031.84 201.266C1068.18 201.266 1101.14 186.775 1125.26 163.254" stroke="#FCFCFC" stroke-width="5"/>
<path d="M1017.29 575.854L1508.41 575.854C1666.49 575.854 1794.64 447.511 1794.64 289.193C1794.64 286.639 1794.61 284.093 1794.54 281.556M1499.3 2.53245L1021.89 2.53245M1017.29 551.709L1508.41 551.709C1652.45 551.709 1769.22 432.149 1769.22 287.891C1769.22 285.773 1769.19 283.661 1769.14 281.556M1499.3 29.2921L1021.51 29.2921M1017.29 527.539L1508.41 527.539C1638.41 527.539 1743.8 416.786 1743.8 286.588C1743.8 284.907 1743.78 283.229 1743.75 281.556M1499.3 56.0442L1021.51 56.0442M1018.06 503.407L1508.41 503.407C1624.37 503.407 1718.38 401.424 1718.38 285.287C1718.38 284.04 1718.37 282.797 1718.35 281.556M1499.3 82.8576L1021.12 82.8576M1017.29 479.236L1508.41 479.236C1610.33 479.236 1692.96 386.061 1692.96 283.984C1692.96 283.173 1692.95 282.364 1692.94 281.556M1499.3 109.594L1021.51 109.594M1017.29 455.066L1508.41 455.066C1596.29 455.066 1667.54 370.699 1667.54 282.682C1667.54 282.248 1667.54 281.814 1667.53 281.38M1499.3 136.444L1019.97 136.331M1017.29 430.934L1508.41 430.934C1582.26 430.934 1642.12 355.337 1642.12 281.38M1021.51 163.106L1450.68 163.106" stroke="#FCFCFC" stroke-width="5"/>
<path d="M752.667 584V487.768C752.667 329.45 880.942 201.107 1039.18 201.107M778.112 584V487.768C778.112 343.51 894.995 226.566 1039.18 226.566M803.557 584L803.557 487.768C803.557 357.57 909.048 252.024 1039.18 252.024M829.002 584L829.002 487.768C829.002 371.63 923.101 277.482 1039.18 277.482M854.447 584V487.768C854.447 385.691 937.154 302.941 1039.18 302.941M879.892 584V487.768C879.892 399.751 951.207 328.399 1039.18 328.399M905.337 584V487.768C905.337 413.811 965.26 353.857 1039.18 353.857" stroke="#FCFCFC" stroke-width="5"/>
<path d="M1024.42 2.53125H532.821C374.584 2.53125 246.309 130.874 246.309 289.192C246.309 291.746 246.342 294.291 246.408 296.829H271.829M1024.42 575.852H905.337M1024.42 29.2918H532.821C388.637 29.2918 271.754 146.236 271.754 290.494C271.754 292.612 271.779 294.724 271.829 296.829M1024.42 551.696H905.337M1024.42 56.0524H532.821C402.69 56.0524 297.199 161.599 297.199 291.796C297.199 293.478 297.216 295.156 297.251 296.829M1024.42 527.54H905.337M1024.42 82.8124H532.821C416.743 82.8124 322.644 176.961 322.644 293.098C322.644 294.344 322.655 295.588 322.676 296.829M1024.42 503.384H905.337M1024.42 109.573H532.821C430.796 109.573 348.089 192.323 348.089 294.401C348.089 295.212 348.094 296.021 348.105 296.829M1024.42 479.228H905.592M1024.42 136.334H532.821C444.849 136.334 373.534 207.685 373.534 295.703C373.534 296.137 373.536 296.571 373.539 297.005M1024.42 455.072H909.408M1024.42 163.094H532.821C458.902 163.094 398.979 223.048 398.979 297.005H373.539M1024.42 430.915H917.805M271.829 296.829H297.251M297.251 296.829H322.676M322.676 296.829H348.105M348.105 296.829L373.539 297.005M570.734 430.915H758.264M320.09 441.941C367.422 508.375 445.065 551.696 532.821 551.696H752.666M320.09 441.941H290.329C341.067 522.403 430.705 575.852 532.821 575.852H752.666M320.09 441.941H351.16M351.16 441.941C394.378 494.225 459.711 527.54 532.821 527.54H752.666M351.16 441.941H384.352M384.352 441.941C422.375 479.908 474.857 503.384 532.821 503.384H752.666M384.352 441.941H421.537M421.537 441.941C452.487 465.347 491.034 479.228 532.821 479.228H752.666M421.537 441.941H469.405C488.838 450.388 510.282 455.072 532.821 455.072H754.448" stroke="#FCFCFC" stroke-width="5"/>
<path d="M214.248 581.964V441.688M214.248 296.831C214.248 166.348 127.115 56.228 7.88818 21.5381M188.803 581.964V441.688M188.803 296.831C188.803 180.549 112.859 82.0143 7.88818 48.1694M163.358 581.964V441.688M163.358 296.831C163.358 194.79 98.5603 107.891 7.88818 75.0774M137.913 581.964V441.688M137.913 296.831C137.913 209.091 84.2051 133.901 7.88818 102.377M112.468 581.964V441.688M112.468 296.831C112.468 223.487 69.7701 160.122 7.88818 130.26M87.0225 581.964V441.688M87.0225 296.831C87.0225 238.052 55.2182 186.705 7.88818 159.078M61.5774 581.964V441.688M61.5774 296.831C61.5774 252.951 40.4836 214.001 7.88818 189.578" stroke="#FCFCFC" stroke-width="5"/>
<path d="M0 441.944H491.6C647.225 441.944 773.87 317.803 778.007 163.097M0.0665946 417.788H491.666C633.674 417.788 749.2 304.346 752.654 163.097M0.133189 393.632H491.733C620.123 393.632 724.529 290.889 727.298 163.097M0.200281 369.476H491.8C606.573 369.476 699.859 277.432 701.941 163.097M0.266876 345.32H491.867C593.022 345.32 675.188 263.973 676.58 163.097M0.333967 321.163H491.934C579.471 321.163 650.516 250.514 651.215 163.097M0.400562 297.007H492C565.919 297.007 625.842 237.054 625.842 163.097" stroke="#FCFCFC" stroke-width="5"/>
</svg>
