<svg width="166" height="57" viewBox="0 0 166 57" fill="none" xmlns="http://www.w3.org/2000/svg">
<path d="M3 42.7499C1.89543 42.7499 1 41.8545 1 40.7499V15.0107C1 13.9062 1.89543 13.0107 3 13.0107H14.4875C17.9524 13.0107 20.6156 13.7047 22.4769 15.0925C24.3383 16.452 25.2689 18.3213 25.2689 20.7004C25.2689 22.3148 24.8967 23.6744 24.1521 24.779C23.4362 25.8835 22.4626 26.7332 21.2313 27.328C19.9999 27.9228 18.6683 28.2202 17.2366 28.2202L18.0097 26.9457C19.7279 26.9457 21.2456 27.2431 22.5628 27.8378C23.8801 28.4326 24.9253 29.3106 25.6985 30.4719C26.4716 31.6048 26.8582 33.0209 26.8582 34.7203C26.8582 37.2694 25.8846 39.252 23.9374 40.6682C22.0187 42.056 19.1552 42.7499 15.3466 42.7499H3ZM5.29538 38.3087C5.29538 38.8609 5.7431 39.3087 6.29538 39.3087H15.1748C17.5515 39.3087 19.3699 38.9121 20.6299 38.1191C21.8899 37.326 22.5199 36.0798 22.5199 34.3804C22.5199 32.6527 21.8899 31.3924 20.6299 30.5993C19.3699 29.8063 17.5515 29.4098 15.1748 29.4098H11.2351C10.6828 29.4098 10.2351 28.962 10.2351 28.4098V26.9685C10.2351 26.4162 10.6828 25.9685 11.2351 25.9685H14.1009C16.2773 25.9685 17.9668 25.572 19.1695 24.779C20.3722 23.9859 20.9735 22.7963 20.9735 21.2103C20.9735 19.6242 20.3722 18.4346 19.1695 17.6416C17.9668 16.8485 16.2773 16.452 14.1009 16.452H6.29538C5.7431 16.452 5.29538 16.8997 5.29538 17.452V38.3087Z" fill="black"/>
<path d="M35.0151 42.7499C33.9106 42.7499 33.0151 41.8545 33.0151 40.7499V15.0107C33.0151 13.9062 33.9106 13.0107 35.0151 13.0107H35.3279C36.0363 13.0107 36.6918 13.3855 37.0513 13.9959L49.2332 34.6835C49.4419 35.038 49.1864 35.485 48.775 35.485C48.3649 35.485 48.1092 35.0405 48.3153 34.686L60.3379 14.0056C60.6959 13.3897 61.3545 13.0107 62.0669 13.0107H62.3751C63.4785 13.0107 64.3735 13.9044 64.3751 15.0079L64.4115 40.7471C64.4131 41.8527 63.5172 42.7499 62.4116 42.7499H62.3647C61.2615 42.7499 60.3667 41.8567 60.3647 40.7535L60.3268 19.7786C60.3264 19.5839 60.4842 19.4259 60.6789 19.4259C60.9515 19.4259 61.1207 19.7222 60.9822 19.957L50.1566 38.3023C49.8508 38.8206 49.2937 39.1387 48.6919 39.1387C48.092 39.1387 47.5365 38.8227 47.2299 38.307L36.3507 20.0032C36.1993 19.7485 36.3828 19.4259 36.6791 19.4259C36.8901 19.4259 37.0612 19.597 37.0612 19.808V40.7499C37.0612 41.8545 36.1658 42.7499 35.0612 42.7499H35.0151Z" fill="black"/>
<path d="M92.4342 14.9964C95.2878 16.673 97.4677 19.4015 98.6768 22.5249C98.7517 22.7183 98.607 22.9238 98.3996 22.9238H94.4323C94.3207 22.9238 94.2187 22.8617 94.1652 22.7638C93.2614 21.1088 91.9304 19.7237 90.3031 18.7677C88.1993 17.5317 85.7353 17.0921 83.3449 17.5262C80.9545 17.9604 78.791 19.2405 77.2351 21.1412C75.6793 23.0419 74.831 25.4413 74.8394 27.9171C74.8479 30.3928 75.7127 32.7861 77.2815 34.6757C78.8503 36.5653 81.0226 37.83 83.4159 38.2471C85.8092 38.6642 88.2701 38.2071 90.3654 36.9561C91.9647 36.0013 93.2727 34.6307 94.1646 32.9981C94.2184 32.8995 94.3214 32.8373 94.4337 32.8381L98.4722 32.8655C98.6779 32.8669 98.8211 33.0703 98.7479 33.2625C97.5581 36.387 95.3658 39.0144 92.5222 40.7121C89.5598 42.4808 86.0804 43.1271 82.6967 42.5373C79.3129 41.9476 76.2416 40.1595 74.0236 37.4879C71.8055 34.8164 70.5829 31.4326 70.5709 27.9323C70.5589 24.4319 71.7584 21.0395 73.9581 18.3522C76.1578 15.6649 79.2167 13.855 82.5964 13.2412C85.976 12.6274 89.4597 13.2489 92.4342 14.9964Z" fill="black"/>
<path d="M109.91 18.3477V41.7499C109.91 42.3022 109.462 42.7499 108.91 42.7499H106.048C105.496 42.7499 105.048 42.3022 105.048 41.7499V14.0107C105.048 13.4585 105.496 13.0107 106.048 13.0107H117.202C122.236 13.0107 126.317 17.1716 126.317 22.3042C126.317 26.5041 123.585 30.0533 119.833 31.2046C119.697 31.2465 119.641 31.4124 119.729 31.5252L127.818 41.9433C128.073 42.2717 127.839 42.7499 127.423 42.7499H123.653C123.349 42.7499 123.06 42.6109 122.871 42.3723L114.273 31.5612C114.132 31.3843 114.056 31.1649 114.056 30.9388V27.6412C114.056 27.0889 114.504 26.6412 115.056 26.6412H117.506C120.023 26.6412 122.063 24.5608 122.063 21.9944C122.063 19.4281 120.023 17.3477 117.506 17.3477H110.91C110.357 17.3477 109.91 17.7954 109.91 18.3477Z" fill="black"/>
<path d="M136.601 42.7499C135.496 42.7499 134.601 41.8545 134.601 40.7499V15.0107C134.601 13.9062 135.496 13.0107 136.601 13.0107H136.913C137.622 13.0107 138.277 13.3855 138.637 13.9959L150.819 34.6835C151.027 35.038 150.772 35.485 150.36 35.485C149.95 35.485 149.695 35.0405 149.901 34.686L161.923 14.0056C162.281 13.3897 162.94 13.0107 163.652 13.0107H163.961C165.064 13.0107 165.959 13.9044 165.961 15.0079L165.997 40.7471C165.999 41.8527 165.103 42.7499 163.997 42.7499H163.95C162.847 42.7499 161.952 41.8567 161.95 40.7535L161.912 19.7786C161.912 19.5839 162.07 19.4259 162.264 19.4259C162.537 19.4259 162.706 19.7222 162.568 19.957L151.742 38.3023C151.436 38.8206 150.879 39.1387 150.277 39.1387C149.677 39.1387 149.122 38.8227 148.815 38.307L137.936 20.0032C137.785 19.7485 137.968 19.4259 138.265 19.4259C138.476 19.4259 138.647 19.597 138.647 19.808V40.7499C138.647 41.8545 137.751 42.7499 136.647 42.7499H136.601Z" fill="black"/>
<rect width="63.4142" height="4.33696" rx="1" fill="black"/>
<rect x="71.8022" y="52.6631" width="94.1978" height="4.33696" rx="1" fill="black"/>
</svg>
