<svg width="61" height="61" viewBox="0 0 61 61" fill="none" xmlns="http://www.w3.org/2000/svg">
<path d="M2 61C0.895432 61 0 60.1046 0 59V50.5934C0 48.5154 0.647343 46.489 1.85206 44.7959L28.0002 8.04677C28.2486 7.69756 28.247 7.22884 27.996 6.88143L25.1349 2.92098C24.8195 2.48433 24.9066 1.87627 25.3319 1.54575L26.4917 0.644542C26.9431 0.293819 27.5961 0.392123 27.9242 0.860189L29.6901 3.37943C30.0857 3.94388 30.9204 3.94818 31.3218 3.38786L33.1337 0.858998C33.467 0.393767 34.122 0.302657 34.5696 0.659267L35.6907 1.55234C36.1058 1.88304 36.1902 2.48042 35.8831 2.91323L33.0628 6.88727C32.8167 7.23395 32.8168 7.69829 33.0629 8.04492L59.154 44.7951C60.3549 46.4866 61 48.5097 61 50.5841V59C61 60.1046 60.1046 61 59 61H2ZM16.5344 57.4599H44.4656H30.5H16.5344Z" fill="#FFC750"/>
<path d="M30.4991 58.6538C28.1484 58.6536 25.8521 57.9473 23.9078 56.6263C21.9635 55.3053 20.4608 53.4307 19.5947 51.2455C18.7285 49.0603 18.5389 46.6653 19.0503 44.371C19.5617 42.0767 20.7505 39.9889 22.4627 38.3784C24.5617 36.4029 29.717 32.8461 28.935 25.0256C37.762 33.4045 41.4478 39.8793 33.6273 46.9231C35.1914 46.9231 37.5375 46.9231 41.4478 43.0597C41.8701 44.2688 42.2298 45.5686 42.2298 46.9231C42.2298 50.0343 40.9939 53.018 38.794 55.218C36.594 57.4179 33.6102 58.6538 30.4991 58.6538Z" fill="#F1F1F1"/>
</svg>
