<svg width="222" height="221" viewBox="0 0 222 221" fill="none" xmlns="http://www.w3.org/2000/svg">
<path d="M157 55.4002V11.2002M157 111V119.8M184.8 83.2002H217.2M128.2 83.2002H81.7997M178.4 102L196.4 121.6M137.4 102L106.013 121.26M177.2 64.2002L198.6 44.8002M180.8 73.8002L209.4 62.2002M167.8 57.2002L178.8 24.6002M137.4 65.4002L75.1997 22.6002M146.4 59.0002L113.4 1.2002M132.2 73.8002L27.5997 41.8002M132.2 93.4002L82.5464 113.347M146.4 107.6L134.8 124.4M168.6 107.6L180.6 124.538M182.8 93.4002L220.6 111.8M6.39971 144.2C21.3997 144.2 57.6398 129.347 78.4398 130.947C114.813 133.745 147.8 165.4 187.4 158.4C199.322 156.293 208.21 153.68 213 151.8M2.79971 129.6C13.5997 125.2 38.2736 118.721 66.9997 136.8C101.32 158.4 168.8 128 174.8 126.2C180.8 124.4 205.2 116.8 220 124.8M1.19971 116C16.733 106.134 58.1998 99.2946 72.3997 107.6C101.217 124.456 131.8 127.2 146.4 121.6C168.821 113 199 135.2 217 140M14.3997 163.2C39.4664 164.934 91.6797 168.16 106.4 167.2C124.8 166 195 163 204.4 168.8" stroke="url(#paint0_radial_3_1339)" stroke-width="1.5" stroke-linecap="round"/>
<circle cx="157.6" cy="83.2007" r="22" stroke="url(#paint1_radial_3_1339)" stroke-width="2"/>
<circle cx="111" cy="111" r="109" stroke="url(#paint2_radial_3_1339)" stroke-width="2"/>
<defs>
<radialGradient id="paint0_radial_3_1339" cx="0" cy="0" r="1" gradientUnits="userSpaceOnUse" gradientTransform="translate(110.9 85.0002) rotate(90) scale(83.8 109.7)">
<stop stop-color="#FE912A"/>
<stop offset="1" stop-color="#FECA5C"/>
</radialGradient>
<radialGradient id="paint1_radial_3_1339" cx="0" cy="0" r="1" gradientUnits="userSpaceOnUse" gradientTransform="translate(157.6 83.2007) rotate(90) scale(23)">
<stop stop-color="#FE912A"/>
<stop offset="1" stop-color="#FECA5C"/>
</radialGradient>
<radialGradient id="paint2_radial_3_1339" cx="0" cy="0" r="1" gradientUnits="userSpaceOnUse" gradientTransform="translate(111 111) rotate(90) scale(110)">
<stop stop-color="#FE912A"/>
<stop offset="1" stop-color="#FECA5C"/>
</radialGradient>
</defs>
</svg>
