<svg width="26" height="25" viewBox="0 0 26 25" fill="none" xmlns="http://www.w3.org/2000/svg">
<path d="M17.9583 2.08325H7.54159C4.6651 2.08325 2.33325 4.4151 2.33325 7.29159V17.7083C2.33325 20.5847 4.6651 22.9166 7.54159 22.9166H17.9583C20.8347 22.9166 23.1666 20.5847 23.1666 17.7083V7.29159C23.1666 4.4151 20.8347 2.08325 17.9583 2.08325Z" stroke="#F8F8F8" stroke-width="2" stroke-linecap="round" stroke-linejoin="round"/>
<path d="M18.4792 6.77075H18.4896M16.9167 11.8437C17.0452 12.7106 16.8972 13.596 16.4935 14.3739C16.0899 15.1518 15.4512 15.7826 14.6684 16.1767C13.8855 16.5707 12.9984 16.7078 12.1331 16.5686C11.2679 16.4294 10.4685 16.0208 9.84881 15.4011C9.2291 14.7814 8.82057 13.9821 8.68134 13.1168C8.54211 12.2515 8.67926 11.3644 9.07328 10.5816C9.4673 9.79872 10.0981 9.16007 10.876 8.75642C11.654 8.35277 12.5393 8.2047 13.4063 8.33325C14.2906 8.46438 15.1092 8.87644 15.7414 9.50857C16.3735 10.1407 16.7856 10.9594 16.9167 11.8437Z" stroke="#F8F8F8" stroke-width="2" stroke-linecap="round" stroke-linejoin="round"/>
</svg>
