<svg width="137" height="183" viewBox="0 0 137 183" fill="none" xmlns="http://www.w3.org/2000/svg">
<path d="M78.4081 179C90.6354 177.563 117.758 176.321 131.014 143.368C144.271 110.415 110.375 69.2299 88.3613 46.8161C75.8817 34.1097 70.162 20.6667 72.1526 4C65.6828 6.77778 43.3256 19.2157 36.8925 37.046C27.77 62.3304 43.0647 81.3526 60.4939 101.701C75.5078 119.23 82.3323 142.506 70.3895 158.31C55.91 177.472 26.6553 181.011 9.59435 153.713C1.58692 140.9 -3.14484 107.793 19.8311 83.8851C22.8642 89.8238 28.1492 100.875 36.8923 108.885C45.9624 117.194 52.8162 126.126 53.3849 137.333C54.1432 152.276 33.2849 151.222 26.6556 142.506C9.9392 120.527 30.4677 97.0555 48.551 75.5517C54.6407 68.3101 62.8656 60.9444 65.6122 58.3103C65.6122 62.3333 67.3532 71.654 76.9864 83.8851C88.0763 97.9655 95.3168 105.057 98.0286 121.816C101.803 145.142 87.7915 170.762 78.4081 179Z" stroke="url(#paint0_linear_3_1333)" stroke-width="5"/>
<defs>
<linearGradient id="paint0_linear_3_1333" x1="68.5" y1="4" x2="68.5" y2="179" gradientUnits="userSpaceOnUse">
<stop stop-color="#FE912A"/>
<stop offset="1" stop-color="#FF5C00"/>
</linearGradient>
</defs>
</svg>
