<svg width="12" height="7" viewBox="0 0 12 7" fill="none" xmlns="http://www.w3.org/2000/svg">
<path d="M9.87999 0.289946L5.99999 4.16995L2.11999 0.289946C2.02741 0.197364 1.9175 0.123924 1.79653 0.0738192C1.67557 0.0237142 1.54592 -0.00207519 1.41499 -0.0020752C1.28406 -0.0020752 1.15441 0.0237142 1.03345 0.0738192C0.912482 0.123924 0.802571 0.197364 0.70999 0.289946C0.617408 0.382528 0.543968 0.492438 0.493863 0.613402C0.443758 0.734366 0.417969 0.864015 0.417969 0.994946C0.417969 1.12588 0.443758 1.25552 0.493863 1.37649C0.543968 1.49745 0.617408 1.60736 0.70999 1.69995L5.29999 6.28995C5.68999 6.67995 6.31999 6.67995 6.70999 6.28995L11.3 1.69995C11.3927 1.60743 11.4662 1.49754 11.5164 1.37657C11.5666 1.2556 11.5924 1.12591 11.5924 0.994946C11.5924 0.863977 11.5666 0.734295 11.5164 0.613321C11.4662 0.492348 11.3927 0.382459 11.3 0.289946C10.91 -0.0900544 10.27 -0.100054 9.87999 0.289946Z" fill="black"/>
</svg>
