<svg width="1279" height="491" viewBox="0 0 1279 491" fill="none" xmlns="http://www.w3.org/2000/svg">
<path d="M1143.58 1H1017.74M998.443 1H895.765M986.091 56.5758L1281 111.017M1076.42 151.281L982.23 118.48M882.641 83.7965L963.702 112.027M1143.58 301.563L922.785 158.654M948.262 270.372L891.442 218.199M818.563 151.281L873.531 201.753M922.785 404.5L800.807 232.377M758.346 341.26L737.217 267.537M715.113 190.411L732.992 252.792M648.72 491V240.316M555.306 341.26L570.83 267.537M588.503 183.606L575.129 247.121M380.059 404.5L505.897 232.377M363.075 274.909L427.096 218.199M494.317 158.654L445.661 201.753M139.963 301.563L380.059 158.654M227.972 158.654L322.158 122.769M414.028 87.7662L342.23 115.121M1 108.182L317.526 56.5758M139.963 7.80519C142.825 7.80519 218.482 7.80519 270.433 7.80519M414.028 7.80519C381.557 7.80519 341.546 7.80519 298.226 7.80519H414.028Z" stroke="url(#paint0_linear_3_1282)" stroke-width="2"/>
<defs>
<linearGradient id="paint0_linear_3_1282" x1="641" y1="1" x2="641" y2="491" gradientUnits="userSpaceOnUse">
<stop offset="0.204987" stop-color="#FE912A"/>
<stop offset="1" stop-color="#FECA5C"/>
</linearGradient>
</defs>
</svg>
