<svg width="118" height="234" viewBox="0 0 118 234" fill="none" xmlns="http://www.w3.org/2000/svg">
<path d="M20 0H98C109.046 0 118 8.95431 118 20V214C118 225.046 109.046 234 98 234V230C105.732 230 114 221.732 114 214V20C114 12.268 105.732 4 98 4H20C12.268 4 4 12.268 4 20V214C4 221.732 12.268 230 20 230H97.99V234H20C8.9543 234 0 225.046 0 214V20C0 8.9543 8.95431 0 20 0Z" fill="#0A0A0A"/>
<path d="M48 9C48 7.34315 49.3431 6 51 6H69C70.6569 6 72 7.34315 72 9C72 10.6569 70.6569 12 69 12H51C49.3431 12 48 10.6569 48 9Z" fill="#0A0A0A"/>
</svg>
